<svg width="56" height="56" viewBox="0 0 56 56" fill="none" xmlns="http://www.w3.org/2000/svg">
<g clip-path="url(#clip0_155_8060)">
<path d="M49.8751 5.52684e-05C50.3013 0.181414 50.4699 0.34226 50.6407 0.76568C50.6839 1.06288 50.6839 1.06288 50.7061 1.39886C50.7191 1.58031 50.7191 1.58031 50.7323 1.76544C50.7404 1.8912 50.7486 2.01696 50.7569 2.14654C50.7737 2.39636 50.791 2.64616 50.8086 2.89593C50.8158 3.00655 50.823 3.11718 50.8304 3.23116C50.8437 3.50026 50.8437 3.50026 50.9688 3.71881C51.0207 3.66637 51.0726 3.61393 51.126 3.5599C51.3604 3.32319 51.5953 3.08691 51.8302 2.85064C51.9118 2.76809 51.9934 2.68554 52.0775 2.60049C52.1558 2.52189 52.234 2.44328 52.3146 2.3623C52.4229 2.25319 52.4229 2.25319 52.5333 2.14187C52.7793 1.91235 52.9085 1.86331 53.2452 1.81841C53.5938 1.85943 53.5938 1.85943 53.9083 2.09185C54.1407 2.40631 54.1407 2.40631 54.2227 2.71392C54.0957 3.25376 53.7594 3.55123 53.3751 3.93756C53.2779 4.03625 53.1808 4.13494 53.0807 4.23663C52.8159 4.50329 52.5495 4.76802 52.2813 5.03131C52.4724 5.22239 52.7438 5.17296 53.0042 5.18768C53.1297 5.19571 53.2552 5.20375 53.3845 5.21203C53.6499 5.22816 53.9154 5.24355 54.1809 5.25817C54.3069 5.26649 54.433 5.27481 54.5628 5.28338C54.7362 5.29351 54.7362 5.29351 54.9131 5.30383C55.2709 5.36573 55.4878 5.47681 55.7813 5.68756C56.0791 6.13557 56.0982 6.59088 56.0001 7.10943C55.8698 7.30762 55.8698 7.30762 55.6902 7.50127C55.6203 7.57695 55.5505 7.65263 55.4786 7.7306C54.9922 8.23631 54.5018 8.73753 54.0065 9.23455C53.9488 9.2926 53.8911 9.35066 53.8316 9.41047C53.527 9.71667 53.2221 10.0226 52.917 10.3282C52.6028 10.643 52.2896 10.9588 51.9766 11.2748C51.7345 11.519 51.4917 11.7624 51.2487 12.0056C51.1329 12.1217 51.0173 12.2382 50.902 12.3549C50.7411 12.5177 50.5792 12.6794 50.417 12.8409C50.3253 12.933 50.2336 13.0251 50.1391 13.1199C49.6267 13.5544 49.1913 13.5893 48.5331 13.5839C48.4586 13.5836 48.3841 13.5833 48.3074 13.583C48.0711 13.5818 47.8349 13.579 47.5987 13.5762C47.4378 13.5751 47.277 13.5741 47.1161 13.5732C46.7233 13.5708 46.3304 13.5671 45.9376 13.5626C46.0103 13.6547 46.0829 13.7469 46.1578 13.8419C50.4429 19.301 52.5104 26.1605 51.7067 33.0868C51.3229 36.046 50.5485 38.8873 49.2188 41.5626C49.1757 41.6506 49.1325 41.7387 49.0881 41.8294C48.4658 43.0908 47.7596 44.261 46.9219 45.3907C46.8727 45.4571 46.8235 45.5234 46.7728 45.5918C46.0437 46.5653 45.249 47.4676 44.4063 48.3438C44.3293 48.4244 44.3293 48.4244 44.2508 48.5066C43.5456 49.2414 42.8094 49.9136 42.0001 50.5313C41.9315 50.584 41.8629 50.6367 41.7922 50.691C39.3307 52.5668 36.6356 53.974 33.6876 54.9063C33.5944 54.9359 33.5013 54.9656 33.4053 54.9961C27.7363 56.7613 21.4463 56.3695 15.9688 54.1407C15.8465 54.0912 15.8465 54.0912 15.7217 54.0408C13.687 53.2072 11.8083 52.0851 10.0626 50.7501C9.98984 50.695 9.9171 50.64 9.84217 50.5833C9.32079 50.1678 9.32079 50.1678 9.21064 49.8259C9.21953 49.7047 9.21953 49.7047 9.22859 49.5811C9.23169 49.4995 9.23479 49.4178 9.23799 49.3337C9.31082 49.0566 9.39708 48.9528 9.62507 48.7813C10.1798 48.665 10.4481 48.677 10.9286 48.9877C11.1709 49.1742 11.406 49.3693 11.6421 49.5636C15.9935 53.1217 22.2753 54.6451 27.8062 54.1715C33.9999 53.5421 40.0978 50.7736 44.126 45.9102C44.293 45.701 44.4593 45.4914 44.6251 45.2813C44.7118 45.1746 44.7985 45.0678 44.8878 44.9579C47.6522 41.486 49.4014 37.1095 49.8751 32.7032C49.8872 32.5949 49.8993 32.4866 49.9118 32.3751C50.4857 26.2952 48.6847 19.8468 44.7994 15.1028C44.4237 14.6529 44.0383 14.212 43.6407 13.7813C42.8621 14.4164 42.167 15.1335 41.46 15.8458C41.3318 15.9745 41.2036 16.1033 41.0753 16.232C40.7635 16.545 40.452 16.8584 40.1407 17.1719C40.2837 17.5463 40.4072 17.8009 40.6876 18.0879C43.4755 21.1978 45.0907 25.8644 44.9865 30.0376C44.9532 30.2969 44.9532 30.2969 44.7891 30.6524C44.4592 30.8834 44.2538 30.905 43.8594 30.9058C43.5412 30.8156 43.4125 30.66 43.2032 30.4063C43.1321 30.1019 43.1321 30.1019 43.1079 29.7505C43.0974 29.6205 43.0869 29.4906 43.076 29.3567C43.0611 29.1488 43.0611 29.1488 43.046 28.9366C42.7243 25.3126 41.5107 21.879 39.088 19.1133C38.8282 18.8126 38.8282 18.8126 38.8282 18.5938C38.0142 19.2715 37.2766 20.0236 36.5313 20.7745C36.4036 20.9027 36.2759 21.031 36.1481 21.1592C35.838 21.4704 35.5283 21.782 35.2188 22.0938C35.4405 22.4685 35.6757 22.8268 35.9259 23.1831C37.7623 25.8307 38.3972 29.0161 37.9194 32.1935C37.5198 34.3089 36.6365 36.3262 35.2188 37.9532C35.1423 38.0443 35.0657 38.1353 34.9868 38.2292C33.0964 40.4195 30.415 41.8032 27.5626 42.2188C25.9392 42.3006 24.205 42.372 22.6407 41.8907C22.5689 41.8695 22.4971 41.8484 22.4231 41.8266C20.7458 41.3241 19.2586 40.5289 17.9376 39.3751C17.8257 39.2847 17.8257 39.2847 17.7116 39.1926C15.385 37.2758 14.0742 34.2847 13.716 31.3454C13.4186 28.2185 14.3372 25.0102 16.3081 22.5616C16.3766 22.4794 16.4451 22.3972 16.5157 22.3126C16.5887 22.2247 16.6618 22.1369 16.737 22.0464C18.7123 19.7609 21.5168 18.3355 24.5069 17.9649C24.6867 17.9528 24.8668 17.944 25.0469 17.9376C25.173 17.9319 25.299 17.9263 25.4289 17.9205C28.2379 17.8537 30.9933 18.6414 33.2244 20.3805C33.4464 20.5459 33.6581 20.6618 33.9063 20.7813C34.3875 20.3028 34.8684 19.8239 35.3489 19.3447C35.5126 19.1816 35.6763 19.0187 35.8401 18.8558C36.0752 18.622 36.3099 18.3879 36.5446 18.1537C36.6182 18.0807 36.6918 18.0077 36.7676 17.9324C36.8355 17.8646 36.9034 17.7967 36.9733 17.7268C37.0333 17.667 37.0933 17.6073 37.1551 17.5457C37.3088 17.3919 37.3088 17.3919 37.4063 17.1719C37.3434 17.1436 37.2806 17.1153 37.2158 17.0861C36.9485 16.9422 36.7475 16.7753 36.5177 16.5772C33.1259 13.8298 28.5635 12.522 24.2318 12.9606C19.6209 13.5004 15.3632 15.6745 12.4278 19.315C11.5144 20.4832 10.7835 21.7287 10.1719 23.0782C10.1415 23.1452 10.1111 23.2123 10.0797 23.2814C8.32885 27.2153 8.16025 31.8752 9.64473 35.9221C10.4367 37.9606 11.482 39.7902 12.9063 41.4532C12.9905 41.552 13.0747 41.6508 13.1614 41.7527C13.7858 42.4636 14.4518 43.067 15.2032 43.6407C15.2988 43.7148 15.3944 43.789 15.4929 43.8654C19.1681 46.6353 23.683 47.7554 28.2282 47.1864C32.814 46.5279 36.9776 44.0559 39.7579 40.3526C41.1381 38.459 42.0697 36.3729 42.6519 34.1104C42.6765 34.0174 42.7011 33.9244 42.7264 33.8285C42.7473 33.7459 42.7682 33.6632 42.7897 33.578C42.8889 33.3239 42.9902 33.2004 43.2032 33.0313C43.6444 32.9088 43.8716 32.8764 44.2901 33.0723C44.6159 33.487 44.5612 33.8318 44.5157 34.3438C44.4479 34.7138 44.3497 35.0704 44.2423 35.4307C44.2131 35.5303 44.1839 35.6298 44.1538 35.7324C43.8493 36.7325 43.4459 37.6728 42.9844 38.6094C42.9492 38.6819 42.914 38.7543 42.8776 38.8289C42.0291 40.5544 40.882 42.0033 39.5938 43.4219C39.4794 43.5484 39.4794 43.5484 39.3627 43.6774C36.3166 46.8735 31.5804 49.0223 27.1781 49.1383C26.7525 49.1452 26.3271 49.1456 25.9014 49.1436C25.812 49.1434 25.7226 49.1431 25.6305 49.1429C24.3172 49.1373 23.046 49.0992 21.7657 48.7813C21.6769 48.7602 21.5881 48.739 21.4966 48.7172C18.3626 47.9529 15.5315 46.5007 13.1588 44.3102C12.9266 44.0968 12.689 43.8923 12.4483 43.6885C12.0101 43.3045 11.6335 42.889 11.2657 42.4376C11.1388 42.2821 11.1388 42.2821 11.0093 42.1235C7.84535 38.1698 6.33446 33.0395 6.8907 28.0001C7.54113 23.0359 9.93063 18.3977 13.8745 15.248C18.0853 12.0246 23.1514 10.5105 28.444 11.1841C32.2985 11.7356 35.6275 13.3997 38.6094 15.8594C38.922 15.7175 39.1465 15.5681 39.3878 15.3247C39.4513 15.2612 39.5147 15.1977 39.5801 15.1323C39.6472 15.064 39.7144 14.9958 39.7835 14.9255C39.8882 14.8203 39.8882 14.8203 39.995 14.7131C40.2173 14.4896 40.4387 14.2653 40.6602 14.0411C40.811 13.8892 40.9618 13.7374 41.1127 13.5856C41.482 13.2139 41.8506 12.8415 42.2188 12.4688C41.7901 11.9383 41.7901 11.9383 41.2849 11.4836C41.2135 11.4283 41.1422 11.373 41.0687 11.3161C40.9545 11.2302 40.9545 11.2302 40.838 11.1426C40.7565 11.0812 40.675 11.0198 40.591 10.9566C35.3612 7.07294 28.9431 5.36362 22.4843 6.22973C21.3139 6.40461 20.1704 6.68216 19.0313 7.00006C18.9429 7.02469 18.8545 7.04933 18.7634 7.07472C14.2314 8.37736 10.0197 11.2878 7.10945 14.9844C7.02415 15.0885 6.93885 15.1925 6.85096 15.2997C3.85047 19.042 1.88095 24.052 1.83339 28.8678C1.83231 28.9582 1.83123 29.0487 1.83012 29.1419C1.77287 35.2082 3.41988 41.0902 7.50721 45.7209C7.59702 45.824 7.68684 45.9271 7.77937 46.0333C7.86086 46.1232 7.94236 46.2132 8.02632 46.3058C8.25578 46.6794 8.24665 46.9284 8.2032 47.3594C8.03913 47.626 8.03913 47.626 7.7657 47.7969C7.32309 47.8854 7.07119 47.9146 6.68946 47.6658C6.4418 47.4328 6.23097 47.1855 6.0157 46.9219C5.96422 46.8591 5.91274 46.7962 5.8597 46.7315C4.48415 45.035 3.32743 43.214 2.40632 41.2344C2.37028 41.1591 2.33424 41.0838 2.29711 41.0062C0.665133 37.5916 -0.0493143 33.9224 -0.0409429 30.1534C-0.0408471 30.0476 -0.0407513 29.9419 -0.0406526 29.8329C-0.0354719 28.0942 0.059286 26.422 0.437573 24.7188C0.463392 24.6021 0.489211 24.4853 0.515812 24.365C1.60611 19.6186 3.96554 15.4183 7.3282 11.9219C7.40521 11.8413 7.40521 11.8413 7.48377 11.7591C12.0422 7.00911 18.6648 4.28239 25.214 4.13793C29.8542 4.09852 34.2944 5.13297 38.3907 7.32818C38.4563 7.36311 38.522 7.39804 38.5896 7.43403C39.9719 8.17644 41.2046 9.097 42.4376 10.0626C42.4359 9.96328 42.4341 9.86401 42.4324 9.76172C42.4268 9.39113 42.4226 9.02059 42.4195 8.64997C42.4179 8.49 42.4157 8.33003 42.4128 8.17007C42.4088 7.93927 42.407 7.70854 42.4055 7.47772C42.4038 7.3391 42.4021 7.20049 42.4003 7.05768C42.4696 6.33989 42.8421 5.89096 43.3417 5.40074C43.399 5.34321 43.4563 5.28569 43.5153 5.22641C43.7034 5.03796 43.8927 4.85069 44.082 4.66345C44.2135 4.53229 44.345 4.40107 44.4763 4.26979C44.751 3.99561 45.0262 3.72197 45.3019 3.44876C45.6556 3.09814 46.0083 2.74658 46.3607 2.39465C46.6318 2.12409 46.9031 1.85384 47.1745 1.5837C47.3047 1.4541 47.4349 1.32445 47.565 1.19475C47.7465 1.01408 47.9282 0.833786 48.1101 0.653608C48.1641 0.599805 48.218 0.546001 48.2736 0.490567C48.7948 -0.0241406 49.1575 -0.0694653 49.8751 5.52684e-05ZM47.0421 4.1666C46.7604 4.44151 46.4775 4.71476 46.191 4.98452C45.9136 5.24563 45.6403 5.51043 45.3694 5.77811C45.216 5.92766 45.059 6.07333 44.9018 6.21888C44.3518 6.77032 44.1255 7.12265 44.122 7.91543C44.1394 8.15755 44.1608 8.39943 44.1876 8.64068C44.1966 8.81808 44.2048 8.99553 44.2115 9.17303C44.2212 9.31918 44.2315 9.4653 44.2423 9.61138C44.2475 9.68794 44.2527 9.7645 44.2581 9.84338C44.2706 10.0258 44.2837 10.2083 44.2969 10.3907C44.5524 10.1723 44.8076 9.95349 45.0626 9.73443C45.1389 9.66902 45.2152 9.60361 45.2938 9.53621C47.894 7.54091 47.894 7.54091 49.4285 4.83198C49.4809 3.99697 49.2972 3.18418 49.0001 2.40631C48.4564 2.40631 47.4708 3.74803 47.0421 4.1666ZM47.9733 8.9908C47.7107 9.28781 47.4375 9.57469 47.1653 9.86282C46.1911 10.7225 46.1911 10.7225 45.6094 11.7032C45.8486 11.7222 46.0879 11.7402 46.3272 11.7579C46.5271 11.7731 46.5271 11.7731 46.731 11.7886C46.8089 11.7919 46.8868 11.7951 46.9671 11.7984C47.1845 11.8093 47.4014 11.8283 47.6179 11.8509C48.3731 11.9009 48.904 11.8984 49.5087 11.3826C49.7033 11.1884 49.8935 10.9898 50.0797 10.7876C50.1825 10.6821 50.2856 10.5769 50.389 10.472C50.6577 10.1978 50.921 9.91891 51.1835 9.63874C51.4532 9.35297 51.7279 9.07223 52.0021 8.79086C52.9928 7.95351 52.9928 7.95351 53.5938 7.00006C50.979 6.39364 49.6953 7.0148 47.9733 8.9908ZM19.2501 22.0938C19.1624 22.1656 19.0747 22.2373 18.9843 22.3113C16.8958 24.0908 15.7055 26.6394 15.4581 29.3516C15.2662 32.1658 16.1817 34.678 17.9376 36.8594C18.0233 36.9745 18.109 37.0895 18.1973 37.2081C20.1169 39.2647 22.8137 40.4632 25.6075 40.5816C28.174 40.5609 30.658 39.7899 32.5938 38.0626C32.6819 37.9912 32.7701 37.9199 32.8609 37.8464C34.9385 36.1101 36.0734 33.5067 36.3126 30.8438C36.4878 28.1691 35.6003 25.4815 33.9063 23.4063C33.3867 23.8398 32.8961 24.292 32.4199 24.7726C32.3555 24.8373 32.291 24.9019 32.2246 24.9685C32.0216 25.1721 31.8189 25.3761 31.6163 25.5801C31.4775 25.7194 31.3387 25.8587 31.1999 25.998C30.8622 26.3369 30.5248 26.6762 30.1876 27.0157C30.256 27.1599 30.256 27.1599 30.3258 27.307C30.3854 27.4339 30.4449 27.5608 30.5063 27.6916C30.5655 27.817 30.6246 27.9425 30.6856 28.0718C31.2883 29.4649 31.1608 30.9455 30.6217 32.3383C29.9988 33.6977 28.991 34.489 27.6241 35.0342C26.1769 35.5193 24.753 35.3328 23.3704 34.7202C22.9597 34.4986 22.6526 34.2242 22.3126 33.9063C22.2404 33.9063 22.1682 33.9063 22.0938 33.9063C22.0642 33.8433 22.0346 33.7803 22.0041 33.7153C21.874 33.4667 21.7247 33.2519 21.5606 33.0245C20.7228 31.7707 20.5269 30.3884 20.7903 28.9156C21.1623 27.5496 21.9329 26.3836 23.1367 25.6284C24.516 24.8918 25.9137 24.7664 27.419 25.1405C27.9557 25.3259 28.4675 25.5776 28.9844 25.8126C30.1755 24.6215 31.3666 23.4304 32.5938 22.2032C31.289 20.8983 29.3591 20.1097 27.5626 19.7969C27.4227 19.7721 27.2828 19.7473 27.1387 19.7217C24.2792 19.4412 21.4574 20.2287 19.2501 22.0938ZM23.0372 27.9864C22.466 28.8186 22.2162 29.7325 22.3878 30.7344C22.6349 31.7909 23.1551 32.5463 24.0489 33.1757C24.865 33.6348 25.7966 33.7744 26.7081 33.5782C27.7229 33.2744 28.4377 32.7353 28.9844 31.8282C29.4007 31.0381 29.5863 30.1847 29.3241 29.3168C29.2165 29.0211 29.1043 28.7285 28.9844 28.4376C28.5961 28.6024 28.351 28.8282 28.0573 29.1284C27.966 29.221 27.8746 29.3135 27.7805 29.4089C27.6388 29.5541 27.6388 29.5541 27.4942 29.7022C27.3062 29.894 27.1179 30.0855 26.9294 30.2768C26.8047 30.4045 26.8047 30.4045 26.6775 30.5347C26.3864 30.8133 26.2857 30.8412 25.8741 30.8711C25.4844 30.8438 25.4844 30.8438 25.2725 30.7276C25.0758 30.3689 25.0901 30.1539 25.1563 29.7501C25.3623 29.4129 25.6424 29.1521 25.9219 28.8751C26.0607 28.735 26.1994 28.5948 26.3381 28.4546C26.744 28.0456 27.1525 27.6393 27.5626 27.2344C27.5084 27.072 27.5084 27.072 27.4532 26.9063C25.9053 26.1731 24.0953 26.6598 23.0372 27.9864Z" fill="#0577AB"/>
</g>
<defs>
<clipPath id="clip0_155_8060">
<rect width="56" height="56" fill="white"/>
</clipPath>
</defs>
</svg>
