<svg width="56" height="56" viewBox="0 0 56 56" fill="none" xmlns="http://www.w3.org/2000/svg">
<g clip-path="url(#clip0_155_8048)">
<path d="M27.9248 12.6464C28.0205 12.6465 28.1162 12.6465 28.2148 12.6466C36.6368 12.6706 43.7624 17.273 49.5381 23.0488C50.0429 23.5599 50.5137 24.0789 50.9568 24.6448C51.1792 24.9269 51.4097 25.1992 51.6444 25.471C51.8966 25.7643 52.1439 26.0615 52.3906 26.3593C52.472 26.4566 52.5533 26.5539 52.6372 26.6541C52.7069 26.7441 52.7767 26.834 52.8486 26.9267C52.9389 27.0407 52.9389 27.0407 53.0311 27.157C53.2276 27.6218 53.2385 28.0509 53.1563 28.5468C53.0097 28.8703 52.8098 29.1238 52.582 29.3945C52.5228 29.4688 52.4636 29.5432 52.4026 29.6198C52.2192 29.848 52.0321 30.0727 51.8438 30.2968C51.7597 30.3985 51.7597 30.3985 51.6739 30.5023C51.3017 30.952 50.9199 31.3924 50.5313 31.8281C50.4794 31.8862 50.4276 31.9444 50.3742 32.0043C49.1881 33.3275 47.9593 34.6534 46.5592 35.7519C46.2896 35.9653 46.0299 36.1873 45.771 36.4133C43.8021 38.1218 41.5279 39.591 39.1653 40.6906C39.006 40.7649 38.8472 40.8402 38.6888 40.9163C35.3513 42.5191 31.7776 43.3626 28.0752 43.3535C27.9794 43.3534 27.8836 43.3533 27.7849 43.3532C23.7965 43.3401 19.92 42.3403 16.3932 40.4682C16.186 40.3585 15.9776 40.2513 15.7688 40.1444C13.8456 39.1511 12.0552 37.9128 10.3906 36.5312C10.3367 36.4865 10.2827 36.4419 10.2272 36.3959C8.38517 34.8672 6.52311 33.2451 5.04322 31.3551C4.82082 31.073 4.59029 30.8007 4.35565 30.5288C4.10347 30.2356 3.85613 29.9384 3.60939 29.6406C3.52803 29.5433 3.44668 29.446 3.36287 29.3458C3.25818 29.2108 3.25818 29.2108 3.15138 29.0732C3.09118 28.9972 3.03097 28.9212 2.96894 28.8429C2.77242 28.3781 2.76152 27.949 2.84376 27.4531C2.99028 27.1296 3.19019 26.8761 3.41798 26.6054C3.50669 26.494 3.50669 26.494 3.59718 26.3804C3.78062 26.152 3.96778 25.9273 4.15626 25.7031C4.2412 25.6005 4.2412 25.6005 4.32785 25.4959C4.70003 25.0472 5.08154 24.6075 5.46876 24.1718C5.56266 24.0657 5.65656 23.9595 5.75331 23.8501C6.90103 22.5758 8.09239 21.3024 9.44514 20.2437C9.71135 20.0337 9.9677 19.8151 10.2232 19.5924C12.3428 17.7551 14.7427 16.2787 17.2813 15.0937C17.3478 15.0619 17.4144 15.0302 17.483 14.9975C20.7608 13.4425 24.3035 12.6379 27.9248 12.6464ZM19.0313 16.8437C18.9478 16.8803 18.8643 16.9169 18.7783 16.9546C16.5103 17.9598 14.407 19.2335 12.4688 20.7812C12.3579 20.8689 12.2471 20.9566 12.1329 21.0469C11.5519 21.5147 10.9918 22.0026 10.4406 22.5051C10.2638 22.6662 10.0858 22.8261 9.90657 22.9845C8.87307 23.8993 7.88872 24.8647 7.00001 25.9218C6.89938 26.0399 6.79869 26.158 6.69795 26.276C6.58896 26.404 6.48001 26.532 6.3711 26.6601C6.31942 26.7209 6.26774 26.7816 6.21449 26.8442C6.07433 27.0099 5.93556 27.1768 5.79689 27.3437C5.72865 27.4187 5.66041 27.4937 5.5901 27.571C5.44541 27.7792 5.44541 27.7792 5.47645 28.0474C5.60032 28.3893 5.76672 28.6043 6.00196 28.8818C6.13478 29.0387 6.13478 29.0387 6.27028 29.1988C6.66726 29.6539 7.0757 30.0983 7.48664 30.5408C7.71046 30.7838 7.92758 31.0297 8.14161 31.2812C8.92872 32.1875 9.80211 33.0232 10.7188 33.7968C10.8674 33.9273 10.8674 33.9273 11.0191 34.0604C15.9974 38.4032 22.4924 41.4808 29.2159 41.0953C34.4644 40.7011 39.4422 38.4838 43.5313 35.2187C43.6421 35.131 43.7529 35.0433 43.8671 34.9529C44.448 34.4853 45.0079 33.9975 45.559 33.4952C45.7373 33.3327 45.9167 33.1715 46.0973 33.0115C47.0922 32.1296 48.0307 31.2019 48.8906 30.1874C48.9995 30.061 49.1085 29.9347 49.2175 29.8085C49.3364 29.6705 49.4553 29.5325 49.5742 29.3945C49.6311 29.3285 49.688 29.2626 49.7466 29.1946C49.8534 29.0702 49.9595 28.9452 50.0649 28.8196C50.1782 28.6857 50.2952 28.5551 50.4133 28.4255C50.5544 28.2198 50.5544 28.2198 50.5236 27.9525C50.3997 27.6106 50.2333 27.3956 49.9981 27.1181C49.9095 27.0135 49.821 26.9089 49.7297 26.8011C49.3328 26.346 48.9243 25.9016 48.5134 25.4591C48.2896 25.2161 48.0724 24.9702 47.8584 24.7187C47.0713 23.8124 46.198 22.9765 45.2813 22.2031C45.1834 22.1173 45.0856 22.0316 44.9847 21.9433C43.3151 20.4888 41.5223 19.2421 39.5938 18.1562C39.5022 18.1042 39.4105 18.0521 39.3162 17.9985C33.0164 14.4538 25.6764 13.903 19.0313 16.8437Z" fill="#0577AB"/>
<path d="M27.9591 18.1015C28.1591 18.1026 28.1591 18.1026 28.3631 18.1036C30.6602 18.1497 32.7297 18.9231 34.4532 20.4531C34.5632 20.5398 34.5632 20.5398 34.6754 20.6282C36.4064 22.0227 37.5497 24.2846 37.8438 26.4687C38.0765 29.1656 37.6852 31.7866 35.9776 33.9609C35.8352 34.1259 35.6917 34.29 35.547 34.4531C35.4891 34.5264 35.4313 34.5997 35.3718 34.6752C33.9774 36.4062 31.7155 37.5495 29.5313 37.8437C26.8344 38.0764 24.2134 37.6851 22.0391 35.9775C21.8741 35.835 21.71 35.6915 21.547 35.5468C21.4736 35.489 21.4003 35.4312 21.3248 35.3717C19.6027 33.9844 18.4346 31.7105 18.1563 29.5312C17.9662 26.7153 17.9662 26.7153 18.3751 25.7031C18.7227 25.3878 18.9512 25.2785 19.4141 25.2041C19.8018 25.2664 20.0402 25.3584 20.3281 25.6307C20.6973 26.1672 20.5669 27.0333 20.5498 27.6556C20.4998 29.6197 20.9176 31.3279 22.2442 32.8466C22.4109 33.0194 22.5794 33.1904 22.7501 33.3593C22.8227 33.4356 22.8953 33.5119 22.9701 33.5905C24.305 34.8999 26.2645 35.5468 28.1095 35.5468C30.2228 35.4028 32.0992 34.6498 33.5914 33.1218C35.0987 31.3706 35.5706 29.3462 35.4602 27.0833C35.322 25.3345 34.4783 23.8562 33.2501 22.6406C33.1775 22.5643 33.1049 22.488 33.03 22.4094C32.0135 21.4123 30.5966 20.7937 29.2032 20.5624C29.1086 20.5458 29.014 20.5292 28.9165 20.512C27.8103 20.3641 26.6504 20.539 25.587 20.8564C25.1105 20.995 24.7654 21.0552 24.2813 20.8906C23.9008 20.5505 23.751 20.3526 23.6798 19.8447C23.7407 19.4258 23.7806 19.2379 24.0626 18.9218C25.2032 18.2099 26.6502 18.0942 27.9591 18.1015Z" fill="#0577AB"/>
<path d="M30.4519 24.2274C31.4147 24.9209 32.1383 25.8381 32.3749 27.0156C32.5212 28.3738 32.405 29.5738 31.5888 30.707C30.8437 31.5914 29.9353 32.2725 28.7578 32.3994C27.3456 32.4974 26.1678 32.3261 25.054 31.3876C24.1224 30.4982 23.6246 29.5522 23.5734 28.2586C23.5565 26.8899 23.8646 25.8373 24.828 24.8281C26.3352 23.3893 28.6676 23.1148 30.4519 24.2274ZM26.1405 26.8584C25.8218 27.4319 25.8172 28.0194 25.9218 28.6562C26.1357 29.2518 26.5335 29.6789 27.0843 29.985C27.683 30.2 28.3168 30.2 28.9155 29.985C29.4663 29.6789 29.8641 29.2518 30.078 28.6562C30.1826 28.0194 30.178 27.4319 29.8593 26.8584C29.454 26.3177 29.0135 25.9806 28.3387 25.8697C27.371 25.8234 26.7248 26.0789 26.1405 26.8584Z" fill="#0577AB"/>
<path d="M44.5157 41.8906C45.1756 42.2661 45.677 42.8015 46.2093 43.3364C46.3074 43.4343 46.4055 43.5322 46.5066 43.633C46.7131 43.8394 46.9194 44.046 47.1254 44.253C47.389 44.5178 47.6535 44.7816 47.9183 45.0452C48.1718 45.2976 48.4244 45.551 48.6771 45.8042C48.772 45.8987 48.8669 45.9931 48.9647 46.0904C49.0523 46.1788 49.14 46.2671 49.2303 46.3581C49.3075 46.4355 49.3847 46.5129 49.4642 46.5926C49.83 47.0112 49.9236 47.3465 49.911 47.9097C49.8543 48.25 49.6798 48.4368 49.4376 48.6719C49.0913 48.845 48.7185 48.8517 48.3439 48.7813C47.684 48.4057 47.1826 47.8703 46.6503 47.3355C46.5031 47.1886 46.5031 47.1886 46.353 47.0388C46.1465 46.8324 45.9402 46.6258 45.7342 46.4188C45.4706 46.154 45.2061 45.8902 44.9413 45.6267C44.6878 45.3742 44.4352 45.1209 44.1825 44.8677C44.0876 44.7732 43.9927 44.6788 43.8949 44.5814C43.8073 44.4931 43.7196 44.4048 43.6293 44.3138C43.5521 44.2364 43.4749 44.159 43.3954 44.0793C43.0296 43.6606 42.936 43.3254 42.9486 42.7622C43.0053 42.4218 43.1798 42.2351 43.422 42C43.7683 41.8268 44.1411 41.8202 44.5157 41.8906Z" fill="#0577AB"/>
<path d="M12.3594 41.8907C12.6667 42.0869 12.8526 42.2209 13.0156 42.5469C13.0717 43.2195 12.9978 43.5427 12.5781 44.0782C12.2528 44.4349 11.9119 44.775 11.5698 45.1155C11.423 45.2627 11.423 45.2627 11.2732 45.4128C11.0668 45.6193 10.8602 45.8256 10.6532 46.0316C10.3884 46.2952 10.1246 46.5597 9.86109 46.8245C9.60861 47.078 9.35529 47.3306 9.10205 47.5833C9.00759 47.6782 8.91313 47.7731 8.81581 47.8709C8.72748 47.9585 8.63914 48.0462 8.54813 48.1365C8.47075 48.2137 8.39338 48.2909 8.31366 48.3704C7.89501 48.7362 7.55979 48.8298 6.99658 48.8172C6.65622 48.7605 6.46946 48.586 6.23438 48.3438C6.06121 47.9975 6.05459 47.6247 6.125 47.25C6.50051 46.5902 7.03591 46.0888 7.5708 45.5564C7.66868 45.4584 7.76656 45.3603 7.8674 45.2592C8.07381 45.0527 8.28042 44.8463 8.48741 44.6404C8.75221 44.3768 9.01602 44.1123 9.27954 43.8475C9.53202 43.594 9.78533 43.3414 10.0386 43.0887C10.133 42.9938 10.2275 42.8989 10.3248 42.8011C10.4132 42.7134 10.5015 42.6258 10.5925 42.5355C10.7086 42.4197 10.7086 42.4197 10.827 42.3016C11.2909 41.8962 11.7473 41.7887 12.3594 41.8907Z" fill="#0577AB"/>
<path d="M49.2188 8.31255C49.5261 8.50873 49.712 8.64273 49.875 8.9688C49.931 9.64133 49.8572 9.96461 49.4375 10.5001C49.1122 10.8567 48.7713 11.1969 48.4292 11.5374C48.2824 11.6845 48.2824 11.6845 48.1326 11.8346C47.9262 12.0412 47.7196 12.2475 47.5126 12.4535C47.2478 12.717 46.984 12.9816 46.7205 13.2464C46.468 13.4999 46.2147 13.7525 45.9614 14.0052C45.867 14.1001 45.7725 14.195 45.6752 14.2928C45.5869 14.3804 45.4985 14.4681 45.4075 14.5584C45.3301 14.6356 45.2528 14.7128 45.173 14.7923C44.7544 15.1581 44.4192 15.2517 43.856 15.2391C43.5156 15.1823 43.3288 15.0079 43.0938 14.7657C42.9206 14.4193 42.914 14.0466 42.9844 13.6719C43.3599 13.0121 43.8953 12.5107 44.4302 11.9783C44.5281 11.8802 44.6259 11.7821 44.7268 11.6811C44.9332 11.4745 45.1398 11.2682 45.3468 11.0623C45.6116 10.7987 45.8754 10.5342 46.1389 10.2693C46.3914 10.0159 46.6447 9.76325 46.898 9.51055C46.9924 9.41565 47.0869 9.32074 47.1842 9.22296C47.2725 9.13532 47.3609 9.04767 47.4519 8.95737C47.5679 8.84157 47.5679 8.84157 47.6863 8.72343C48.1503 8.31807 48.6067 8.21054 49.2188 8.31255Z" fill="#0577AB"/>
<path d="M7.65636 8.3125C8.31623 8.68801 8.81758 9.22341 9.34997 9.7583C9.44806 9.85618 9.54614 9.95406 9.6472 10.0549C9.85376 10.2613 10.0601 10.4679 10.266 10.6749C10.5296 10.9397 10.7941 11.2035 11.059 11.467C11.3124 11.7195 11.565 11.9728 11.8177 12.2261C11.9126 12.3205 12.0075 12.415 12.1053 12.5123C12.193 12.6007 12.2806 12.689 12.3709 12.78C12.4481 12.8574 12.5253 12.9347 12.6049 13.0145C12.9706 13.4331 13.0642 13.7683 13.0516 14.3315C12.9949 14.6719 12.8204 14.8587 12.5782 15.0938C12.2319 15.2669 11.8591 15.2735 11.4845 15.2031C10.8246 14.8276 10.3233 14.2922 9.79089 13.7573C9.64375 13.6105 9.64375 13.6105 9.49365 13.4607C9.2871 13.2543 9.08078 13.0477 8.87482 12.8407C8.61126 12.5759 8.34673 12.3121 8.0819 12.0486C7.82844 11.7961 7.57581 11.5428 7.32311 11.2896C7.22821 11.1951 7.13331 11.1006 7.03553 11.0033C6.94788 10.915 6.86024 10.8266 6.76993 10.7356C6.69274 10.6583 6.61554 10.5809 6.536 10.5012C6.17023 10.0825 6.07662 9.74729 6.08922 9.18408C6.14595 8.84372 6.32041 8.65696 6.56261 8.42188C6.90895 8.24871 7.28171 8.24209 7.65636 8.3125Z" fill="#0577AB"/>
<path d="M28 46.5254C28.0903 46.524 28.1805 46.5226 28.2735 46.5211C28.6747 46.6277 28.8333 46.8211 29.0938 47.1406C29.1481 47.4359 29.1689 47.6626 29.1645 47.9571C29.166 48.0775 29.166 48.0775 29.1674 48.2004C29.1698 48.4647 29.1683 48.7288 29.1664 48.9932C29.1668 49.1774 29.1673 49.3617 29.168 49.546C29.1688 49.9318 29.1676 50.3175 29.1651 50.7033C29.162 51.1973 29.1637 51.6911 29.167 52.1851C29.169 52.5655 29.1684 52.9459 29.167 53.3263C29.1666 53.5084 29.167 53.6905 29.1683 53.8726C29.1697 54.1274 29.1676 54.3819 29.1645 54.6367C29.1656 54.7116 29.1667 54.7865 29.1679 54.8636C29.1587 55.2799 29.0996 55.4459 28.833 55.7731C28.5218 56.0199 28.3911 56.0745 28 56.0684C27.8647 56.0705 27.8647 56.0705 27.7266 56.0726C27.3254 55.9661 27.1667 55.7726 26.9063 55.4531C26.852 55.1578 26.8312 54.9311 26.8355 54.6367C26.8346 54.5564 26.8336 54.4761 26.8326 54.3934C26.8302 54.1291 26.8318 53.8649 26.8336 53.6006C26.8333 53.4163 26.8327 53.232 26.8321 53.0478C26.8312 52.662 26.8324 52.2762 26.835 51.8904C26.8381 51.3964 26.8363 50.9026 26.833 50.4087C26.831 50.0282 26.8317 49.6479 26.8331 49.2675C26.8335 49.0854 26.833 48.9033 26.8317 48.7212C26.8303 48.4664 26.8325 48.2119 26.8355 47.9571C26.8338 47.8447 26.8338 47.8447 26.8322 47.7301C26.8413 47.3139 26.9004 47.1478 27.167 46.8207C27.4783 46.5738 27.609 46.5193 28 46.5254Z" fill="#0577AB"/>
<path d="M28 -0.0683594C28.0903 -0.0697693 28.1805 -0.0711792 28.2735 -0.0726318C28.6747 0.0339353 28.8333 0.227361 29.0938 0.546875C29.1481 0.842195 29.1689 1.06888 29.1645 1.36334C29.166 1.48376 29.166 1.48376 29.1674 1.60661C29.1698 1.87094 29.1683 2.13508 29.1664 2.39941C29.1668 2.58369 29.1673 2.76797 29.168 2.95224C29.1688 3.33805 29.1676 3.72378 29.1651 4.10957C29.162 4.60355 29.1637 5.09737 29.167 5.59135C29.169 5.97175 29.1684 6.35212 29.167 6.73252C29.1666 6.91462 29.167 7.09673 29.1683 7.27883C29.1697 7.53362 29.1676 7.78814 29.1645 8.04291C29.1656 8.11781 29.1667 8.19271 29.1679 8.26989C29.1587 8.68613 29.0996 8.85218 28.833 9.1793C28.5218 9.42619 28.3911 9.48072 28 9.47461C27.8647 9.47672 27.8647 9.47672 27.7266 9.47888C27.3254 9.37231 27.1667 9.17889 26.9063 8.85938C26.852 8.56406 26.8312 8.33737 26.8355 8.04291C26.8346 7.96263 26.8336 7.88235 26.8326 7.79964C26.8302 7.53531 26.8318 7.27117 26.8336 7.00684C26.8333 6.82256 26.8327 6.63828 26.8321 6.45401C26.8312 6.0682 26.8324 5.68247 26.835 5.29668C26.8381 4.8027 26.8363 4.30888 26.833 3.8149C26.831 3.4345 26.8317 3.05413 26.8331 2.67373C26.8335 2.49163 26.833 2.30952 26.8317 2.12742C26.8303 1.87264 26.8325 1.61811 26.8355 1.36334C26.8338 1.25099 26.8338 1.25099 26.8322 1.13636C26.8413 0.720123 26.9004 0.554069 27.167 0.226948C27.4783 -0.0199381 27.609 -0.0744693 28 -0.0683594Z" fill="#0577AB"/>
<path d="M21.9843 21.4375C22.3261 21.6426 22.3261 21.6426 22.5312 21.9844C22.6393 22.5342 22.6161 22.9365 22.3261 23.42C21.8427 23.71 21.4403 23.7332 20.8905 23.625C20.5487 23.42 20.5487 23.42 20.3437 23.0782C20.2355 22.5284 20.2587 22.126 20.5487 21.6426C21.0322 21.3526 21.4345 21.3294 21.9843 21.4375Z" fill="#0577AB"/>
</g>
<defs>
<clipPath id="clip0_155_8048">
<rect width="56" height="56" fill="white"/>
</clipPath>
</defs>
</svg>
