<svg width="24" height="25" viewBox="0 0 24 25" fill="none" xmlns="http://www.w3.org/2000/svg">
<g opacity="0.5">
<path d="M12 22.8076C10.6333 22.8076 9.34167 22.545 8.125 22.0196C6.90833 21.4943 5.846 20.7776 4.938 19.8696C4.03 18.9616 3.31333 17.8993 2.788 16.6826C2.26267 15.466 2 14.1743 2 12.8076C2 11.4243 2.26267 10.1286 2.788 8.92062C3.31333 7.71262 4.03 6.65428 4.938 5.74562C5.846 4.83695 6.90833 4.12028 8.125 3.59562C9.34167 3.07095 10.6333 2.80828 12 2.80762C13.3833 2.80762 14.6793 3.07028 15.888 3.59562C17.0967 4.12095 18.1547 4.83762 19.062 5.74562C19.9693 6.65362 20.686 7.71195 21.212 8.92062C21.738 10.1293 22.0007 11.425 22 12.8076C22 14.1743 21.7373 15.466 21.212 16.6826C20.6867 17.8993 19.97 18.962 19.062 19.8706C18.154 20.7793 17.0957 21.496 15.887 22.0206C14.6783 22.5453 13.3827 22.8076 12 22.8076ZM12 20.7576C12.4333 20.1576 12.8083 19.5326 13.125 18.8826C13.4417 18.2326 13.7 17.541 13.9 16.8076H10.1C10.3 17.541 10.5583 18.2326 10.875 18.8826C11.1917 19.5326 11.5667 20.1576 12 20.7576ZM9.4 20.3576C9.1 19.8076 8.83767 19.2366 8.613 18.6446C8.38833 18.0526 8.20067 17.4403 8.05 16.8076H5.1C5.58333 17.641 6.18767 18.3659 6.913 18.9826C7.63833 19.5993 8.46733 20.0576 9.4 20.3576ZM14.6 20.3576C15.5333 20.0576 16.3627 19.5993 17.088 18.9826C17.8133 18.3659 18.4173 17.641 18.9 16.8076H15.95C15.8 17.441 15.6127 18.0536 15.388 18.6456C15.1633 19.2376 14.9007 19.8083 14.6 20.3576ZM4.25 14.8076H7.65C7.6 14.4743 7.56267 14.1453 7.538 13.8206C7.51333 13.4959 7.50067 13.1583 7.5 12.8076C7.49933 12.457 7.512 12.1196 7.538 11.7956C7.564 11.4716 7.60133 11.1423 7.65 10.8076H4.25C4.16667 11.141 4.10433 11.4703 4.063 11.7956C4.02167 12.121 4.00067 12.4583 4 12.8076C3.99933 13.157 4.02033 13.4946 4.063 13.8206C4.10567 14.1466 4.168 14.4756 4.25 14.8076ZM9.65 14.8076H14.35C14.4 14.4743 14.4377 14.1453 14.463 13.8206C14.4883 13.4959 14.5007 13.1583 14.5 12.8076C14.4993 12.457 14.4867 12.1196 14.462 11.7956C14.4373 11.4716 14.4 11.1423 14.35 10.8076H9.65C9.6 11.141 9.56267 11.4703 9.538 11.7956C9.51333 12.121 9.50067 12.4583 9.5 12.8076C9.49933 13.157 9.512 13.4946 9.538 13.8206C9.564 14.1466 9.60133 14.4756 9.65 14.8076ZM16.35 14.8076H19.75C19.8333 14.4743 19.896 14.1453 19.938 13.8206C19.98 13.4959 20.0007 13.1583 20 12.8076C19.9993 12.457 19.9787 12.1196 19.938 11.7956C19.8973 11.4716 19.8347 11.1423 19.75 10.8076H16.35C16.4 11.141 16.4377 11.4703 16.463 11.7956C16.4883 12.121 16.5007 12.4583 16.5 12.8076C16.4993 13.157 16.4867 13.4946 16.462 13.8206C16.4373 14.1466 16.4 14.4756 16.35 14.8076ZM15.95 8.80762H18.9C18.4167 7.97428 17.8127 7.24928 17.088 6.63262C16.3633 6.01595 15.534 5.55762 14.6 5.25762C14.9 5.80762 15.1627 6.37862 15.388 6.97062C15.6133 7.56262 15.8007 8.17495 15.95 8.80762ZM10.1 8.80762H13.9C13.7 8.07428 13.4417 7.38262 13.125 6.73262C12.8083 6.08262 12.4333 5.45762 12 4.85762C11.5667 5.45762 11.1917 6.08262 10.875 6.73262C10.5583 7.38262 10.3 8.07428 10.1 8.80762ZM5.1 8.80762H8.05C8.2 8.17428 8.38767 7.56162 8.613 6.96962C8.83833 6.37762 9.10067 5.80695 9.4 5.25762C8.46667 5.55762 7.63733 6.01595 6.912 6.63262C6.18667 7.24928 5.58267 7.97428 5.1 8.80762Z" fill="white"/>
</g>
</svg>
