<svg width="24" height="25" viewBox="0 0 24 25" fill="none" xmlns="http://www.w3.org/2000/svg">
<path d="M21.3333 3.83334H2.66667C1.95942 3.83334 1.28115 4.11429 0.781049 4.61439C0.280952 5.11449 0 5.79277 0 6.50001L0 18.5C0 19.2073 0.280952 19.8855 0.781049 20.3856C1.28115 20.8857 1.95942 21.1667 2.66667 21.1667H21.3333C22.0406 21.1667 22.7189 20.8857 23.219 20.3856C23.719 19.8855 24 19.2073 24 18.5V6.50001C24 5.79277 23.719 5.11449 23.219 4.61439C22.7189 4.11429 22.0406 3.83334 21.3333 3.83334Z" fill="#006C35"/>
<path d="M5.94595 9.86667C6.36728 9.90667 6.13462 9.154 6.28728 9.01733C6.31595 8.95 6.36928 8.94933 6.37328 9.03467V9.67333C6.36928 9.88133 6.50595 9.942 6.61195 9.98533C6.72262 9.97667 6.79595 9.98067 6.83928 10.088L6.89128 11.1933C6.89128 11.1933 7.14728 11.2667 7.15928 10.5713C7.17195 10.1633 7.07795 9.822 7.13328 9.74267C7.13528 9.66467 7.23462 9.66 7.30395 9.698C7.41395 9.77533 7.46328 9.87133 7.63395 9.83333C7.89462 9.762 8.05062 9.63533 8.05462 9.43533C8.03928 9.24533 8.01795 9.05533 7.93595 8.86533C7.94728 8.83067 7.88595 8.74133 7.89728 8.70667C7.94395 8.78 8.01528 8.774 8.03128 8.70667C7.98728 8.56067 7.91862 8.42067 7.80662 8.36C7.71462 8.27867 7.57995 8.29533 7.53062 8.46467C7.50795 8.65933 7.60128 8.89133 7.74262 9.08C7.77262 9.154 7.81528 9.27667 7.79662 9.38733C7.72128 9.43 7.64528 9.41267 7.58262 9.346C7.58262 9.346 7.37528 9.19067 7.37528 9.156C7.43062 8.804 7.38795 8.764 7.35728 8.66667C7.33595 8.532 7.27195 8.48867 7.21995 8.39667C7.16795 8.342 7.09795 8.342 7.06462 8.39667C6.97262 8.55533 7.01528 8.89667 7.08195 9.04933C7.12928 9.18933 7.20262 9.278 7.16795 9.278C7.13928 9.35733 7.08062 9.33867 7.03795 9.24733C6.97662 9.058 6.96462 8.776 6.96462 8.64867C6.94595 8.49133 6.92595 8.15467 6.82262 8.06933C6.75928 7.98333 6.66528 8.02467 6.63262 8.104C6.62595 8.26 6.62462 8.41667 6.64262 8.56133C6.71328 8.814 6.73595 9.03667 6.77062 9.296C6.77995 9.64333 6.56995 9.44667 6.57928 9.27467C6.62795 9.05133 6.61528 8.69933 6.57195 8.61C6.53795 8.52133 6.49728 8.49867 6.41462 8.51333C6.34928 8.508 6.17995 8.69333 6.13195 9C6.13195 9 6.09128 9.158 6.07395 9.29867C6.05062 9.45733 5.94662 9.56933 5.87328 9.27667C5.80995 9.064 5.77128 8.53933 5.66528 8.662C5.63462 9.072 5.59795 9.79333 5.94595 9.86667Z" fill="white"/>
<path d="M6.58004 10.166C6.23337 10.1727 5.72604 10.6213 5.71204 10.87C6.07737 10.694 6.4367 10.5247 6.8087 10.3433C6.7487 10.2533 6.80537 10.1727 6.58004 10.166Z" fill="white"/>
<path d="M8.49133 11.5107C8.65199 10.9753 8.46533 10.5807 8.55266 10.5827C8.73733 10.782 8.99599 10.6093 9.05266 10.54C9.07733 10.5053 9.13799 10.4827 9.18066 10.528C9.32533 10.632 9.57999 10.5827 9.63266 10.4C9.66602 10.2166 9.68652 10.031 9.69399 9.84468C9.57599 9.88134 9.48799 9.90601 9.47999 9.95468L9.45533 10.1133C9.44533 10.1647 9.34333 10.1667 9.33933 10.1013C9.29466 9.89801 9.10933 9.87134 8.99733 10.1867C8.92199 10.248 8.78599 10.26 8.77133 10.1687C8.78933 9.95734 8.70399 9.92868 8.53333 10.028C8.47866 9.60868 8.42333 9.20801 8.36866 8.78868C8.43999 8.78668 8.50533 8.83934 8.56999 8.75801C8.49866 8.53601 8.34799 8.08268 8.26466 8.05001C8.22399 8.00068 8.18933 8.03134 8.13666 8.04401C8.04733 8.07268 7.96399 8.15001 7.98999 8.30001C8.09599 8.94334 8.16533 9.43334 8.27066 10.0767C8.28666 10.152 8.22399 10.2513 8.14266 10.2413C8.00466 10.148 7.96999 9.95868 7.73399 9.96668C7.56266 9.96868 7.36733 10.154 7.34333 10.3333C7.31466 10.4753 7.30466 10.63 7.34333 10.7547C7.46333 10.8987 7.60799 10.8847 7.73399 10.852C7.83733 10.8093 7.92333 10.7053 7.95933 10.73C7.98399 10.76 7.96533 11.102 7.47133 11.3647C7.17199 11.4987 6.93399 11.5293 6.80599 11.2853C6.72666 11.1327 6.81199 10.5527 6.61666 10.6873C6.03866 12.1773 7.96999 12.384 8.18599 10.7487C8.20666 10.6813 8.28799 10.614 8.30199 10.724C8.25733 12.2053 6.80799 12.3073 6.56199 11.8413C6.50066 11.7313 6.48266 11.4873 6.47666 11.3407C6.43999 11.0493 6.28733 11.1613 6.26333 11.45C6.23866 11.6107 6.24533 11.656 6.24533 11.81C6.32199 12.98 8.18866 12.4773 8.49133 11.5107ZM7.77133 10.4987C7.75933 10.5213 7.70666 10.512 7.66799 10.512C7.62399 10.51 7.60333 10.5027 7.57666 10.4673C7.56466 10.4273 7.60199 10.3893 7.61866 10.3593C7.63933 10.324 7.75066 10.2873 7.78999 10.386C7.79713 10.4048 7.79917 10.4251 7.79589 10.4449C7.79261 10.4647 7.78413 10.4832 7.77133 10.4987Z" fill="white"/>
<path d="M9.06799 9.17267C9.18399 9.13 9.73399 8.50134 9.73399 8.50134C9.70532 8.47667 9.67999 8.45867 9.65132 8.434C9.62066 8.40734 9.62399 8.38067 9.65132 8.35467C9.78732 8.27533 9.74399 8.10134 9.67266 8.022C9.62645 7.99962 9.57569 7.98821 9.52435 7.98868C9.473 7.98914 9.42246 8.00146 9.37666 8.02467C9.28132 8.116 9.25866 8.26267 9.33399 8.35467C9.40732 8.38933 9.48066 8.46333 9.43199 8.504C9.20732 8.744 8.59132 9.158 8.66266 9.17267C8.67799 9.19267 9.05599 9.192 9.06799 9.17267ZM9.47532 8.18533C9.51066 8.17667 9.55599 8.208 9.57732 8.25467C9.59866 8.30134 9.58732 8.346 9.55266 8.35467H9.55132C9.51666 8.36333 9.47132 8.332 9.44999 8.28534C9.42932 8.238 9.44066 8.194 9.47532 8.18533ZM5.90799 12.0053C5.81732 12.19 5.77932 12.0633 5.77132 11.96C5.76116 11.7865 5.76988 11.6123 5.79732 11.4407C5.81999 11.294 5.79732 11.3387 5.75066 11.398C5.54466 11.726 5.52666 12.2167 5.64066 12.3627C5.70066 12.432 5.79999 12.4627 5.87399 12.44C6.00332 12.384 6.05999 12.1213 6.02932 12.026C5.98532 11.9587 5.95132 11.948 5.90799 12.0053ZM12.6953 8.53334C12.9327 8.852 13.158 9.17667 13.3787 9.50733C13.4222 9.79311 13.4533 10.0747 13.472 10.352C13.5087 10.888 13.5193 11.468 13.486 12.0327C13.586 12.0367 13.748 11.87 13.804 11.6267C13.8407 11.29 13.7907 10.6907 13.7873 10.492C13.7829 10.3675 13.7769 10.243 13.7693 10.1187C14.032 10.548 14.288 10.9973 14.538 11.4967C14.6293 11.454 14.6093 10.9433 14.556 10.8713C14.356 10.4427 14.0807 10.0187 13.9927 9.856C13.96 9.796 13.8487 9.62534 13.716 9.43C13.7042 9.27415 13.6855 9.11888 13.66 8.96467C13.6187 8.67933 13.778 8.996 13.756 8.83C13.7047 8.54467 13.546 8.352 13.3607 8.09067C13.3007 8.006 13.3027 7.98867 13.21 8.11133C13.1779 8.18502 13.1628 8.26502 13.166 8.34533C13.1367 8.30305 13.1058 8.26191 13.0733 8.222L12.77 7.96333C12.7027 7.91533 12.5387 7.82867 12.5093 7.97267C12.4964 8.07364 12.5014 8.17609 12.524 8.27534C12.5413 8.34667 12.6447 8.46534 12.6953 8.53334ZM13.1887 8.51734C13.2013 8.57267 13.2147 8.628 13.2233 8.68467L13.2333 8.73867C13.2053 8.69967 13.1761 8.66143 13.146 8.624C13.0367 8.49467 13.1273 8.52267 13.1887 8.51734Z" fill="white"/>
<path d="M14.6126 11.6287C14.3806 11.8707 14.046 12.1687 13.682 12.3067C13.6426 12.3507 13.7793 12.5393 13.9553 12.5393C14.2506 12.5047 14.5106 12.3387 14.7513 11.902C14.816 11.8007 14.9293 11.5827 14.932 11.4133C14.954 10.4227 14.8826 9.65133 14.734 8.93533C14.724 8.87788 14.7267 8.81895 14.742 8.76267C14.7606 8.74 14.826 8.76267 14.8606 8.70667C14.9106 8.65467 14.7266 8.228 14.6213 8.064C14.584 7.99067 14.5713 7.94133 14.5093 8.07267C14.444 8.17933 14.4006 8.36533 14.406 8.53867C14.5466 9.514 14.59 10.368 14.682 11.3433C14.6893 11.4373 14.6753 11.5747 14.6126 11.6287ZM18.4993 9.15533C18.4893 9.086 18.4586 8.92467 18.4706 8.904C18.4893 8.85467 18.586 8.90933 18.6206 8.85267C18.6713 8.80133 18.3713 8.416 18.2666 8.252C18.2286 8.17867 18.216 8.12933 18.154 8.26067C18.0886 8.36733 18.066 8.55867 18.092 8.72667C18.2486 9.786 18.3653 10.582 18.3893 11.5213C18.3753 11.6107 18.3726 11.6587 18.3306 11.7707C18.238 11.8893 18.136 12.0373 18.0393 12.1093C17.9433 12.1807 17.7386 12.2493 17.6713 12.302C17.46 12.4253 17.4593 12.566 17.6313 12.5707C17.926 12.536 18.2753 12.512 18.516 12.148C18.5806 12.0467 18.6573 11.7713 18.6606 11.602C18.6826 10.6113 18.648 9.87133 18.4993 9.15533ZM16.2653 9.98C16.268 9.844 16.2806 9.664 16.288 9.55133C16.2913 9.50933 16.3013 9.462 16.3413 9.45133C16.382 9.44067 16.454 9.49267 16.4546 9.44867C16.4466 9.36267 16.4293 9.23467 16.3806 9.174C16.314 9.07533 16.1373 9.09933 16.106 9.254C16.1066 9.31133 16.1326 9.342 16.128 9.394C16.12 9.42333 16.0893 9.44333 16.0166 9.40867C16.0286 9.398 15.9693 9.316 15.9693 9.316C15.9126 9.28133 15.8366 9.318 15.788 9.34933C15.7705 9.38301 15.7601 9.41987 15.7574 9.45769C15.7546 9.49551 15.7596 9.53349 15.772 9.56933C15.852 9.72067 16.1313 9.97733 16.2653 9.98Z" fill="white"/>
<path d="M16.1714 8.82068L16.7667 9.54935C16.81 10.1 16.8214 10.5507 16.864 11.1013C16.858 11.3347 16.786 11.538 16.7174 11.5673C16.7174 11.5673 16.614 11.6273 16.5447 11.5613C16.494 11.5407 16.292 11.2247 16.292 11.2247C16.1887 11.13 16.1207 11.1567 16.0474 11.2247C15.8447 11.42 15.7534 11.7867 15.616 12.0387C15.58 12.0953 15.48 12.1433 15.3687 12.0347C15.0867 11.6487 15.252 11.1 15.2174 11.2413C14.966 11.5247 15.0767 11.9933 15.1334 12.0947C15.216 12.26 15.2834 12.3667 15.4447 12.4487C15.5914 12.5567 15.706 12.4887 15.7687 12.4133C15.9167 12.2593 15.9187 11.8693 15.988 11.7907C16.036 11.6487 16.1594 11.6727 16.2187 11.736C16.2735 11.8123 16.3454 11.8746 16.4287 11.918C16.5667 12.04 16.7314 12.062 16.8934 11.9507C17.004 11.8887 17.0767 11.808 17.1414 11.6487C17.2134 11.4567 17.174 10.574 17.1594 10.0447C17.2627 10.178 17.3634 10.3173 17.4654 10.4567C17.51 10.8987 17.5354 11.3387 17.5207 11.788C17.51 11.878 17.834 11.5213 17.8314 11.352V10.9747C17.9874 11.2093 18.1394 11.4513 18.282 11.7073C18.3714 11.6607 18.342 11.1573 18.2854 11.088C18.1207 10.812 17.9014 10.5247 17.75 10.3193C17.74 10.2933 17.7347 10.264 17.7227 10.2393C17.662 10.0987 17.7 9.98535 17.6714 9.83602C17.6434 9.68602 17.6507 9.46202 17.6074 9.28402C17.5954 9.21468 17.5594 8.99202 17.57 8.97135C17.5874 8.92135 17.654 8.97268 17.6867 8.91535C17.7354 8.86202 17.518 8.29868 17.4074 8.13735C17.3674 8.06535 17.2954 8.09002 17.206 8.20735C17.124 8.28468 17.1547 8.46068 17.186 8.62802C17.264 9.03335 17.3294 9.42202 17.3854 9.80668C17.2655 9.6473 17.1444 9.48885 17.022 9.33135L17.0167 9.30202C17.0167 9.29468 16.9987 8.95268 16.9827 8.87135C16.98 8.83868 16.972 8.82868 17.0067 8.83268C17.0434 8.86335 17.048 8.86535 17.0714 8.87602C17.1087 8.88268 17.1414 8.81935 17.1194 8.76135L16.7747 8.12668C16.7474 8.09935 16.7114 8.07002 16.668 8.13402C16.641 8.1574 16.6193 8.18638 16.6046 8.21896C16.5899 8.25154 16.5824 8.28693 16.5827 8.32268C16.5934 8.47268 16.6194 8.62602 16.6294 8.77668L16.644 8.85802C16.6287 8.84002 16.61 8.81735 16.602 8.80935C16.3094 8.50135 16.7367 8.75935 16.546 8.52135C16.3847 8.34402 16.338 8.28868 16.1994 8.18202C16.13 8.13735 16.088 8.05202 16.0654 8.19735C16.0547 8.32483 16.0513 8.45282 16.0554 8.58068C16.0554 8.64202 16.1174 8.75402 16.1714 8.82068ZM10.2374 9.54002C10.4054 9.60935 10.5127 9.28935 10.582 8.93868C10.6287 8.84002 10.6647 8.82935 10.6887 8.88002C10.6827 9.34668 10.722 9.45002 10.842 9.59202C11.1094 9.79868 11.3307 9.61802 11.3487 9.60068L11.5567 9.39268C11.6027 9.34402 11.6647 9.34068 11.73 9.38402C11.794 9.44135 11.7854 9.54135 11.9214 9.61068C12.036 9.65668 12.2814 9.62135 12.338 9.52268C12.4147 9.39202 12.4334 9.34668 12.468 9.29735C12.5227 9.22468 12.616 9.25735 12.616 9.28002C12.6074 9.32068 12.5527 9.36135 12.59 9.43402C12.6554 9.48268 12.67 9.45135 12.7087 9.44068C12.8447 9.37535 12.946 9.08068 12.946 9.08068C12.952 8.97068 12.8907 8.98002 12.8507 9.00268C12.7987 9.03402 12.7954 9.04468 12.7434 9.07668C12.6767 9.08668 12.548 9.13068 12.4847 9.03202C12.4194 8.91335 12.418 8.74802 12.3687 8.62868C12.3687 8.62002 12.282 8.44002 12.3627 8.42868C12.4034 8.43602 12.4894 8.45868 12.5034 8.38668C12.5454 8.31602 12.412 8.11468 12.3214 8.01268C12.242 7.92602 12.132 7.91535 12.026 8.00402C11.9514 8.07268 11.962 8.14868 11.9474 8.22135C11.9348 8.2726 11.9346 8.3261 11.9468 8.37744C11.959 8.42879 11.9832 8.47651 12.0174 8.51668C12.0914 8.66268 12.2267 8.85135 12.182 9.11535C12.182 9.11535 12.1034 9.24068 11.9654 9.22468C11.908 9.21202 11.8147 9.18735 11.7654 8.82068C11.728 8.54268 11.7747 8.15402 11.6567 7.97202C11.614 7.86202 11.5834 7.75602 11.4794 7.94402C11.4514 8.01802 11.3314 8.13002 11.4187 8.36135C11.49 8.50735 11.5187 8.74535 11.4867 9.01068C11.4374 9.08602 11.4267 9.11135 11.362 9.18668C11.2714 9.28402 11.1734 9.25935 11.098 9.22268C11.0274 9.17535 10.9727 9.15068 10.9407 9.00002C10.9467 8.76002 10.96 8.36668 10.916 8.28335C10.8514 8.15402 10.7447 8.20068 10.6987 8.24002C10.4794 8.44068 10.3714 8.77868 10.3054 9.04735C10.2447 9.24335 10.18 9.18735 10.1347 9.10802C10.024 9.00402 10.0167 8.19268 9.8827 8.32668C9.66737 8.93602 10.004 9.60535 10.2374 9.54002Z" fill="white"/>
<path d="M13.4247 10.8494L13.3607 10.8127L12.1067 10.8067C12.0421 10.782 12.0614 10.7607 12.1067 10.7433C12.4061 10.7027 12.9387 10.616 12.9741 10.1047C12.9681 9.83868 12.8594 9.66402 12.5327 9.61602C12.2934 9.63468 12.1221 9.86735 12.1494 10.1227C12.1381 10.192 12.1721 10.3267 12.1021 10.342C11.6414 10.384 11.1394 10.672 11.1227 10.8787C11.0947 10.898 11.0321 10.842 11.0401 10.754C11.0177 10.3776 10.9094 10.0113 10.7234 9.68335C10.5781 9.53802 10.6234 9.58602 10.5261 9.65468C10.4634 9.72668 10.4521 9.77602 10.4554 9.91935C10.4554 9.92468 10.5727 10.252 10.6721 10.4813C10.7381 10.7167 10.8001 10.9853 10.7554 11.2393C10.6007 11.5753 10.2894 11.8767 9.98939 12.04C9.83472 12.09 9.70205 12.072 9.66938 12.0373C9.57405 11.9733 9.57872 11.8554 9.58605 11.8534C9.83872 11.6767 10.1281 11.5347 10.3547 11.0593C10.4214 10.878 10.4414 10.768 10.3754 10.4873C10.3575 10.3883 10.312 10.2963 10.2441 10.222C10.2847 10.1953 10.4014 10.284 10.4194 10.2313C10.3857 10.0777 10.3092 9.93669 10.1987 9.82468C10.1087 9.74268 10.0107 9.73335 9.92805 9.80868C9.83472 9.86068 9.81472 10.046 9.85938 10.2087C9.90872 10.3313 10.0427 10.352 10.1387 10.598C10.1387 10.6034 10.1734 10.782 10.1241 10.852C10.0847 10.9747 9.57472 11.3753 9.54672 11.3934C9.53272 11.4107 9.53872 11.3847 9.53672 11.318C9.53339 11.2367 9.56938 11.0447 9.55938 11.0433C9.39338 11.1507 9.33805 11.4793 9.30805 11.5767C8.88805 11.8667 8.41272 12.0827 8.13805 12.3773C7.99472 12.6007 9.12339 12.1207 9.25472 12.0627C9.28405 12.084 9.28072 12.1847 9.35938 12.2747C9.47672 12.4334 9.72472 12.5313 9.96805 12.4707C10.3747 12.3233 10.6101 12.046 10.8487 11.7387C10.8827 11.6887 10.9361 11.6507 10.9854 11.6887C11.1494 12.056 11.6234 12.316 12.2347 12.3433C12.3767 12.1707 12.3081 12.0873 12.2507 12.0513C12.2507 12.046 11.9487 11.9314 11.9027 11.8167C11.8747 11.7127 11.9427 11.6213 12.0787 11.552C12.4714 11.5047 12.8574 11.452 13.2314 11.332C13.2354 11.2067 13.3081 11.0187 13.3581 10.9374C13.4061 10.8547 13.4321 10.8794 13.4247 10.8494ZM12.3934 10.068C12.4121 10.0367 12.4741 10.038 12.5321 10.072C12.5901 10.106 12.6227 10.1587 12.6034 10.19C12.5847 10.222 12.5221 10.22 12.4641 10.186C12.4061 10.152 12.3747 10.1 12.3934 10.068ZM11.8887 11.3347C11.7541 11.3807 11.6247 11.4167 11.6247 11.6113C11.6747 11.882 11.5561 11.7894 11.4861 11.752C11.4034 11.6927 11.1707 11.5494 11.1374 11.24C11.1321 11.166 11.1901 11.104 11.2827 11.104C11.4221 11.142 11.6281 11.1447 11.8067 11.1633C11.9527 11.1727 12.0254 11.2874 11.8887 11.3347ZM7.24405 8.33135C7.38805 8.40068 7.66005 8.37135 7.64805 8.13802C7.64805 8.11735 7.64272 8.04802 7.64072 8.02935C7.61139 7.96068 7.53139 7.97735 7.51272 8.04868C7.50672 8.07202 7.52272 8.10935 7.50205 8.12135C7.49005 8.13335 7.44405 8.12602 7.44605 8.06202C7.44605 8.04135 7.43072 8.01935 7.42205 8.00668C7.41272 8.00068 7.40739 7.99868 7.39072 7.99868C7.37072 7.99935 7.37072 8.00468 7.36005 8.02202C7.35538 8.03868 7.34872 8.05602 7.34872 8.07535C7.34605 8.09802 7.33738 8.10602 7.32072 8.11002C7.30205 8.11002 7.30605 8.11202 7.29139 8.10202C7.28205 8.09202 7.27072 8.08802 7.27072 8.07135C7.27041 8.05189 7.26727 8.03257 7.26139 8.01402C7.25294 8.00424 7.24116 7.99779 7.22605 7.99468C7.14738 7.99468 7.14205 8.08468 7.14672 8.11935C7.13939 8.12535 7.13672 8.28668 7.24405 8.33135Z" fill="white"/>
<path d="M11.6747 9.85135C11.6747 9.83068 11.6594 9.80935 11.6507 9.79601C11.6414 9.79001 11.636 9.78801 11.6194 9.78801C11.5994 9.78868 11.6 9.79401 11.5887 9.81135C11.584 9.82868 11.5774 9.84535 11.5774 9.86468C11.5754 9.88801 11.566 9.89601 11.5494 9.89935C11.5307 9.89935 11.5347 9.90135 11.5194 9.89201C11.51 9.88201 11.4987 9.87801 11.4987 9.86135C11.4984 9.84188 11.4952 9.82257 11.4894 9.80401C11.4809 9.79424 11.4691 9.78801 11.454 9.78535C11.3754 9.78535 11.37 9.87535 11.374 9.90935C11.368 9.91601 11.3647 10.0767 11.472 10.122C11.6167 10.1907 11.96 10.1507 11.876 9.92868C11.8746 9.89217 11.8721 9.85572 11.8687 9.81935C11.8394 9.75068 11.7587 9.76801 11.7407 9.83868C11.7354 9.86201 11.7514 9.89935 11.73 9.91135C11.7194 9.92335 11.6727 9.91601 11.6747 9.85135ZM13.9394 9.38001C14.0834 9.44935 14.3547 9.42001 14.3427 9.18735C14.3412 9.15084 14.3388 9.11438 14.3354 9.07801C14.306 9.00935 14.226 9.02668 14.208 9.09735C14.202 9.12068 14.218 9.15801 14.1967 9.17001C14.1847 9.18201 14.1387 9.17535 14.1407 9.11068C14.1407 9.09001 14.1254 9.06801 14.1167 9.05535C14.1074 9.04935 14.102 9.04735 14.0847 9.04735C14.0647 9.04868 14.0654 9.05335 14.054 9.07068C14.0494 9.08801 14.0427 9.10468 14.0427 9.12401C14.04 9.14735 14.0314 9.15535 14.0147 9.15868C13.996 9.15868 14 9.16068 13.9847 9.15135C13.9754 9.14135 13.9647 9.13735 13.9647 9.12068C13.9645 9.10099 13.9613 9.08145 13.9554 9.06268C13.9465 9.0529 13.9345 9.04668 13.9194 9.04401C13.8407 9.04401 13.8354 9.13401 13.84 9.16801C13.8354 9.17468 13.832 9.33535 13.9394 9.38001ZM14.0367 8.47868C14.088 8.62268 13.9974 8.76001 14.0514 8.78001C14.1 8.80268 14.1694 8.63135 14.1947 8.47335C14.2247 8.34535 14.1334 8.08335 14.004 8.02935C13.9254 8.01068 13.8134 8.05735 13.8494 8.16268C13.8314 8.21335 14.008 8.38535 14.0367 8.47868ZM15.3667 11.8547C15.4674 11.8553 15.5834 11.6247 15.6327 11.396C15.66 11.0813 15.614 10.89 15.606 10.7047C15.598 10.5193 15.3974 9.11001 15.356 8.97001C15.3074 8.70535 15.5514 8.93468 15.5247 8.78068C15.44 8.58668 15.23 8.30468 15.1634 8.13601C15.1234 8.06401 15.1407 8.00001 15.0514 8.11735C14.9694 8.38735 14.9407 8.60735 14.972 8.77535C15.184 9.88201 15.4014 10.802 15.3667 11.8547ZM17.8707 8.96135C17.894 9.03335 17.8354 9.26601 17.884 9.28735C17.9287 9.31135 17.9914 9.12668 18.0147 8.95535C18.0274 8.86135 17.9587 8.53335 17.8407 8.47468C17.7687 8.45468 17.6667 8.50468 17.7 8.61935C17.6834 8.67468 17.8447 8.86001 17.8707 8.96135ZM9.12469 11.3987C9.16803 11.4167 9.22736 11.2807 9.25003 11.1547C9.26269 11.0853 9.19603 10.8447 9.08336 10.8013C9.01403 10.7867 8.91936 10.8053 8.94869 10.908C8.94536 10.9633 9.10203 11.03 9.11136 11.1587C9.13403 11.212 9.07803 11.3833 9.12469 11.3987ZM6.08736 8.32201C6.10936 8.37735 6.06536 8.55401 6.11136 8.57068C6.15336 8.58935 6.21269 8.44801 6.23469 8.31801C6.24736 8.24601 6.23736 8.00201 6.07069 7.95201C6.00203 7.93668 5.90669 7.97468 5.93803 8.06201C5.92203 8.10335 6.06269 8.24468 6.08736 8.32201ZM9.35536 9.10401C9.22803 9.17335 9.17803 9.37868 9.25803 9.49801C9.33203 9.60401 9.44936 9.56468 9.46536 9.56468C9.59069 9.58001 9.66469 9.33001 9.66469 9.33001C9.66469 9.33001 9.66869 9.26001 9.52003 9.39268C9.45736 9.40468 9.44936 9.38135 9.43403 9.34535C9.41905 9.28009 9.42584 9.21172 9.45336 9.15068C9.47469 9.08868 9.42669 9.06135 9.35536 9.10401ZM10.3167 8.33535C10.3372 8.32255 10.3547 8.30563 10.3683 8.28565C10.3818 8.26568 10.391 8.24309 10.3954 8.21935C10.4147 8.12201 10.292 8.26535 10.2767 8.15668C10.2494 8.05601 10.328 8.01468 10.4027 7.91735C10.4054 7.85001 10.404 7.80268 10.3127 7.85735C10.2487 7.90068 10.1207 8.03268 10.1167 8.18468C10.1127 8.27068 10.0967 8.27001 10.1534 8.32468C10.194 8.38401 10.2347 8.37801 10.3167 8.33535ZM11.1827 8.38735C11.2654 8.16335 11.2654 8.06868 11.2714 7.97335C11.246 7.82868 11.148 7.83335 11.0834 7.99401C11.0554 8.05468 11.0227 8.37401 11.028 8.37401C11.006 8.46935 11.1274 8.51001 11.1827 8.38735ZM16.6294 9.97601C16.6294 9.97601 15.9607 10.4513 15.9447 10.468C15.878 10.5267 15.9114 10.7347 15.9447 10.7107C15.992 10.7293 16.6647 10.2727 16.6514 10.2193C16.6827 10.2207 16.698 9.95201 16.6294 9.97601ZM16.5474 11.2653C16.592 11.2893 16.71 11.1433 16.7054 10.9613C16.7187 10.8673 16.6714 10.5227 16.554 10.464C16.482 10.444 16.386 10.5053 16.4194 10.6193C16.4027 10.674 16.502 10.8653 16.528 10.9667C16.5514 11.0393 16.4987 11.244 16.5474 11.2653ZM12.7607 12.2627C12.7607 12.2687 12.8174 12.3173 12.884 12.2787C13.024 12.2247 13.112 12.1727 13.308 12.1293C13.3594 12.1287 13.356 11.9907 13.2747 11.986C13.1687 11.9913 13.07 11.9967 12.964 12.0807C12.8987 12.0953 12.888 12.056 12.8734 12.02C12.8574 11.9313 12.91 11.87 12.8987 11.804C12.9027 11.808 12.838 11.7487 12.772 11.782C12.7687 11.782 12.6247 11.8793 12.5787 11.9473C12.55 11.9693 12.5534 11.988 12.562 12.0247C12.584 12.0753 12.6234 12.06 12.6674 12.036C12.726 12.028 12.754 12.0667 12.7494 12.1367C12.7214 12.2253 12.7607 12.258 12.7607 12.2627ZM17.128 12.3733C17.106 12.4113 17.0914 12.4687 17.1594 12.4867C17.2847 12.522 17.5734 12.334 17.5734 12.3307C17.62 12.2953 17.6047 12.2293 17.6007 12.2293C17.5734 12.198 17.512 12.216 17.4707 12.2113C17.4514 12.2113 17.386 12.2013 17.4174 12.144C17.4394 12.1131 17.4569 12.0792 17.4694 12.0433C17.4887 12 17.472 11.9713 17.4014 11.948C17.33 11.9347 17.3014 11.9413 17.222 11.948C17.1794 11.9573 17.1647 11.976 17.1567 12.028C17.16 12.1067 17.2074 12.1027 17.2567 12.134C17.2854 12.1707 17.304 12.204 17.2547 12.2633C17.208 12.3067 17.1754 12.3307 17.128 12.3733ZM17 15.8333H16V15.5C16 15.4116 15.9649 15.3268 15.9024 15.2643C15.8399 15.2018 15.7551 15.1667 15.6667 15.1667C15.5783 15.1667 15.4935 15.2018 15.431 15.2643C15.3685 15.3268 15.3334 15.4116 15.3334 15.5V15.8333H7.33336C7.33336 15.8333 7.33336 16.5 9.33336 16.5H15.3334V16.8333C15.3334 16.9218 15.3685 17.0065 15.431 17.069C15.4935 17.1316 15.5783 17.1667 15.6667 17.1667C15.7551 17.1667 15.8399 17.1316 15.9024 17.069C15.9649 17.0065 16 16.9218 16 16.8333V16.5H16.6667V16.8333C16.6667 16.9218 16.7018 17.0065 16.7643 17.069C16.8268 17.1316 16.9116 17.1667 17 17.1667C17.0884 17.1667 17.1732 17.1316 17.2357 17.069C17.2982 17.0065 17.3334 16.9218 17.3334 16.8333V16.1667C17.3334 16.0783 17.2982 15.9935 17.2357 15.931C17.1732 15.8685 17.0884 15.8333 17 15.8333Z" fill="white"/>
</svg>
