<svg width="23" height="26" viewBox="0 0 23 26" fill="none" xmlns="http://www.w3.org/2000/svg">
<g opacity="0.5" clip-path="url(#clip0_108_4311)">
<path d="M10.826 0.307617C10.8408 4.28144 10.8556 8.25526 10.8709 12.3495C11.701 12.1767 12.5312 12.004 13.3865 11.8259C13.431 11.8259 13.4755 11.8259 13.5213 11.8259C13.5207 11.7849 13.5201 11.744 13.5195 11.7017C13.5055 10.702 13.4952 9.70239 13.4887 8.70265C13.4855 8.21917 13.481 7.73574 13.4738 7.2523C13.4675 6.83069 13.4635 6.40913 13.4621 5.98748C13.4613 5.7644 13.4594 5.54144 13.4548 5.3184C13.4505 5.10797 13.4492 4.89771 13.4501 4.68724C13.45 4.61046 13.4487 4.53368 13.4463 4.45694C13.4343 4.05724 13.4615 3.78255 13.7421 3.47454C13.85 3.36653 13.9614 3.26364 14.0772 3.1636C14.1693 3.08326 14.2539 2.99695 14.3383 2.90906C14.7201 2.54525 15.6976 1.61652 16.2615 1.61652C16.2615 4.79846 16.2615 7.98039 16.2615 11.2588C16.4987 11.2012 16.7359 11.1436 16.9803 11.0842C17.1883 11.0392 17.3962 10.995 17.6048 10.9523C17.6915 10.9344 17.6915 10.9344 17.7799 10.9161C17.9358 10.8839 18.0917 10.8519 18.2476 10.8199C18.4116 10.7862 18.5755 10.7523 18.7395 10.7185C19.014 10.662 19.2885 10.6055 19.563 10.5491C19.8804 10.4839 20.1977 10.4186 20.515 10.3531C20.8213 10.29 21.1277 10.2269 21.434 10.1639C21.5641 10.1371 21.6942 10.1103 21.8243 10.0835C22.0051 10.0462 22.186 10.0091 22.3668 9.97196C22.4478 9.95524 22.4478 9.95524 22.5304 9.93818C22.5794 9.92815 22.6284 9.91813 22.6789 9.90779C22.7216 9.89901 22.7643 9.89023 22.8083 9.88118C22.9099 9.86259 22.9099 9.86259 22.9998 9.86259C23.0104 10.1731 22.9735 10.4557 22.9099 10.7597C22.9002 10.8067 22.8904 10.8538 22.8804 10.9022C22.7545 11.4782 22.5772 12.0538 22.3289 12.592C22.3102 12.6326 22.3102 12.6326 22.2911 12.6741C22.1731 12.8202 21.9555 12.8461 21.7762 12.883C21.7065 12.8975 21.7065 12.8975 21.6354 12.9123C21.5849 12.9226 21.5344 12.9329 21.4824 12.9435C21.4288 12.9545 21.3752 12.9656 21.32 12.977C21.1735 13.0073 21.027 13.0374 20.8804 13.0673C20.7579 13.0924 20.6355 13.1176 20.513 13.1428C20.2241 13.2023 19.9352 13.2615 19.6462 13.3207C19.3483 13.3816 19.0504 13.4429 18.7526 13.5043C18.4967 13.5571 18.2407 13.6097 17.9846 13.6622C17.8318 13.6935 17.679 13.7249 17.5263 13.7564C17.356 13.7915 17.1856 13.8263 17.0153 13.8611C16.9648 13.8715 16.9143 13.882 16.8622 13.8928C16.8157 13.9022 16.7693 13.9116 16.7214 13.9213C16.661 13.9337 16.661 13.9337 16.5994 13.9463C16.4861 13.9638 16.4861 13.9638 16.2615 13.9638C16.2615 14.8421 16.2615 15.7204 16.2615 16.6252C16.6469 16.5389 17.0324 16.4525 17.4295 16.3635C17.6408 16.3182 17.8521 16.2732 18.0637 16.2296C18.1172 16.2185 18.1707 16.2074 18.2258 16.196C18.3969 16.1605 18.5681 16.1251 18.7392 16.0898C18.8602 16.0647 18.9812 16.0396 19.1022 16.0146C19.3528 15.9627 19.6035 15.9108 19.8542 15.8591C20.1437 15.7992 20.4333 15.7393 20.7228 15.6793C21.0035 15.6211 21.2841 15.563 21.5648 15.505C21.6836 15.4804 21.8024 15.4558 21.9212 15.4312C22.0858 15.397 22.2505 15.363 22.4152 15.3291C22.4888 15.3138 22.4888 15.3138 22.5639 15.2982C22.6085 15.289 22.653 15.2798 22.6989 15.2704C22.7378 15.2624 22.7766 15.2543 22.8166 15.2461C22.9099 15.2291 22.9099 15.2291 22.9998 15.2291C23.0099 15.5366 22.9752 15.8168 22.9128 16.118C22.9031 16.1647 22.8935 16.2113 22.8836 16.2593C22.7622 16.8147 22.585 17.3621 22.3709 17.8905C22.3583 17.9335 22.3457 17.9764 22.3327 18.0206C22.1786 18.2307 21.9715 18.2375 21.72 18.2852C21.6398 18.3017 21.6398 18.3017 21.558 18.3186C21.4106 18.3488 21.263 18.378 21.1153 18.4068C20.9579 18.4378 20.8008 18.47 20.6436 18.5021C20.3427 18.5634 20.0416 18.6235 19.7404 18.6832C19.4088 18.7489 19.0774 18.8158 18.7461 18.8829C18.3228 18.9685 17.8995 19.054 17.4761 19.1387C16.474 19.3393 15.473 19.545 14.4726 19.7533C14.3878 19.771 14.303 19.7886 14.2182 19.8063C14.1152 19.8277 14.0122 19.8492 13.9092 19.8707C13.8643 19.8801 13.8195 19.8894 13.7732 19.8991C13.7341 19.9072 13.6949 19.9154 13.6546 19.9238C13.5662 19.9411 13.5662 19.9411 13.5213 19.9411C13.5213 18.1702 13.5213 16.3992 13.5213 14.5746C12.6911 14.7474 11.861 14.9202 11.0056 15.0982C10.9464 15.0982 10.8871 15.0982 10.826 15.0982C10.8269 15.1588 10.8269 15.1588 10.8278 15.2206C10.8332 15.6031 10.8373 15.9855 10.8399 16.3681C10.8413 16.5647 10.8432 16.7613 10.8463 16.9579C10.8492 17.148 10.8508 17.3381 10.8515 17.5282C10.852 17.6003 10.853 17.6725 10.8545 17.7446C10.8635 18.2078 10.8222 18.5369 10.5564 18.9376C10.5337 18.9735 10.5109 19.0095 10.4875 19.0465C10.4192 19.1515 10.3482 19.2542 10.2758 19.3567C10.25 19.3938 10.2243 19.4309 10.1977 19.469C10.1437 19.5465 10.0895 19.6239 10.0352 19.7012C9.9528 19.8184 9.87094 19.9359 9.78916 20.0535C9.73617 20.1294 9.68315 20.2053 9.63009 20.2811C9.60603 20.3156 9.58197 20.3501 9.55718 20.3857C9.33189 20.7057 9.10164 21.0325 8.80448 21.2937C8.77703 21.3178 8.74958 21.342 8.7213 21.3669C8.18497 21.8083 7.48194 21.8992 6.81423 22.0335C6.71378 22.0541 6.61334 22.0747 6.51291 22.0953C6.2972 22.1397 6.08143 22.1837 5.86563 22.2276C5.51868 22.2983 5.17198 22.3702 4.82534 22.4422C4.76571 22.4546 4.70608 22.467 4.64645 22.4794C4.55631 22.4982 4.46617 22.5169 4.37604 22.5357C4.04336 22.6048 3.71062 22.6737 3.37788 22.7426C3.28681 22.7614 3.19575 22.7803 3.10469 22.7991C3.04372 22.8117 2.98276 22.8243 2.9218 22.8369C2.67066 22.8889 2.41954 22.9409 2.16841 22.993C1.92235 23.044 1.67627 23.0949 1.43019 23.1459C1.28492 23.1759 1.13965 23.206 0.994396 23.2361C0.835121 23.2691 0.675834 23.3021 0.516544 23.335C0.445316 23.3498 0.445316 23.3498 0.372648 23.3649C0.329784 23.3737 0.286919 23.3826 0.242756 23.3917C0.205358 23.3994 0.167961 23.4072 0.129429 23.4152C0.0447109 23.4315 0.0447108 23.4315 -0.000211095 23.4315C-0.0124874 23.1159 0.0191373 22.8265 0.0868251 22.518C0.0964304 22.4737 0.106036 22.4293 0.115932 22.3836C0.241361 21.8353 0.417954 21.2931 0.628695 20.7701C0.645582 20.7263 0.662469 20.6824 0.679867 20.6373C0.763461 20.5083 0.763461 20.5083 0.90025 20.4517C0.956823 20.4405 1.0134 20.4292 1.07168 20.4176C1.10316 20.411 1.13464 20.4044 1.16707 20.3976C1.27239 20.3758 1.37797 20.3557 1.48361 20.3355C1.5589 20.3203 1.63417 20.3049 1.70942 20.2895C1.91302 20.248 2.11689 20.2078 2.32083 20.1679C2.53318 20.1262 2.74525 20.0831 2.95735 20.0402C3.26378 19.9782 3.57029 19.9166 3.8769 19.8554C4.42884 19.7453 4.97998 19.6318 5.5308 19.5164C5.60953 19.4999 5.68826 19.4835 5.76699 19.467C6.03044 19.4119 6.29387 19.3568 6.55729 19.3015C6.76748 19.2575 6.9777 19.2136 7.18798 19.17C7.25132 19.1568 7.31465 19.1436 7.37796 19.1303C7.46402 19.1122 7.55013 19.0943 7.63625 19.0765C7.68432 19.0665 7.73239 19.0564 7.78192 19.0461C7.90604 19.0249 7.90604 19.0249 8.08573 19.0249C8.0709 17.9307 8.05608 16.8364 8.0408 15.709C7.00225 15.9229 7.00225 15.9229 5.96369 16.1369C5.5398 16.2242 5.1159 16.3115 4.692 16.3988C4.38319 16.4624 4.07438 16.5261 3.76557 16.5897C3.6023 16.6233 3.43904 16.6569 3.27577 16.6906C3.09279 16.7283 2.90981 16.766 2.72684 16.8037C2.64706 16.8201 2.64706 16.8201 2.56567 16.8368C2.51491 16.8473 2.46416 16.8578 2.41186 16.8685C2.33817 16.8836 2.33817 16.8836 2.26298 16.8991C2.15554 16.9214 2.04822 16.9443 1.941 16.9676C1.85745 16.9857 1.85745 16.9857 1.77222 17.004C1.72201 17.015 1.6718 17.026 1.62007 17.0374C1.4953 17.0592 1.38393 17.0664 1.2576 17.0615C1.2809 16.7169 1.32254 16.3826 1.39517 16.0444C1.40469 16 1.41421 15.9555 1.42402 15.9097C1.53423 15.4222 1.69812 14.9514 1.88651 14.4874C1.90153 14.4351 1.91655 14.3828 1.93203 14.3289C2.02805 14.1708 2.04003 14.1587 2.2092 14.1103C2.29079 14.0929 2.37273 14.077 2.45487 14.0622C2.50029 14.0528 2.54571 14.0435 2.59251 14.034C2.74532 14.003 2.89846 13.9739 3.05167 13.9447C3.15954 13.9232 3.26739 13.9016 3.37521 13.8798C3.58191 13.8383 3.78868 13.7972 3.99558 13.7566C4.42815 13.6717 4.85988 13.5833 5.29147 13.4938C5.48687 13.4533 5.6823 13.413 5.87772 13.3726C5.91618 13.3646 5.95464 13.3567 5.99427 13.3485C6.11024 13.3245 6.22622 13.3006 6.3422 13.2766C6.38055 13.2687 6.4189 13.2608 6.45842 13.2526C6.68065 13.2068 6.90293 13.1611 7.12527 13.1157C7.19353 13.1018 7.26177 13.0878 7.33001 13.0737C7.42379 13.0543 7.51761 13.0352 7.61145 13.0161C7.66425 13.0053 7.71705 12.9945 7.77145 12.9833C7.90604 12.9603 7.90604 12.9603 8.08573 12.9603C8.08517 12.88 8.08517 12.88 8.0846 12.798C8.07584 11.5256 8.06917 10.2531 8.06508 8.98069C8.06458 8.82397 8.06405 8.66724 8.06352 8.51051C8.06336 8.46371 8.06336 8.46371 8.0632 8.41596C8.06144 7.91122 8.05825 7.40651 8.05453 6.90178C8.05075 6.38361 8.04851 5.86545 8.04769 5.34727C8.04718 5.05632 8.04592 4.76541 8.04298 4.47447C8.04023 4.20051 8.03939 3.9266 8.04 3.65262C8.03989 3.55219 8.03909 3.45176 8.03753 3.35134C8.02499 2.49798 8.02499 2.49798 8.28127 2.2187C8.34961 2.16196 8.41912 2.1065 8.49002 2.05282C8.54194 1.9958 8.59275 1.93779 8.64163 1.8783C9.02996 1.44751 10.1671 0.307617 10.826 0.307617Z" fill="white"/>
<path d="M23 20.5957C23.0101 20.9032 22.9754 21.1834 22.9129 21.4847C22.9033 21.5313 22.8937 21.5779 22.8838 21.6259C22.7624 22.1813 22.5852 22.7287 22.3711 23.2571C22.3542 23.3009 22.3373 23.3448 22.3199 23.3899C22.2363 23.5189 22.2363 23.5189 22.0994 23.5754C22.0427 23.5867 21.9859 23.5979 21.9274 23.6095C21.8957 23.6161 21.8641 23.6227 21.8314 23.6295C21.7249 23.6514 21.6181 23.6717 21.5112 23.6921C21.4344 23.7076 21.3575 23.7232 21.2807 23.7389C21.1143 23.7726 20.9479 23.8057 20.7812 23.8382C20.5162 23.89 20.2515 23.9432 19.9868 23.9967C19.7053 24.0535 19.4238 24.1102 19.1422 24.1664C18.4094 24.3126 17.6777 24.4631 16.9462 24.6156C16.8931 24.6267 16.8399 24.6378 16.7852 24.6492C16.5209 24.7043 16.2567 24.7594 15.9924 24.8145C15.5381 24.9094 15.0837 25.004 14.6293 25.0983C14.4944 25.1263 14.3596 25.1545 14.2248 25.1826C14.1441 25.1993 14.0635 25.2161 13.9828 25.2328C13.9278 25.2443 13.9278 25.2443 13.8717 25.256C13.6215 25.3077 13.6215 25.3077 13.5215 25.3077C13.509 25.0096 13.5552 24.7377 13.6169 24.4461C13.627 24.3982 13.637 24.3503 13.6474 24.301C13.7131 23.9979 13.7875 23.6987 13.878 23.4017C13.8877 23.3694 13.8974 23.3372 13.9074 23.304C13.9278 23.24 13.9503 23.1767 13.9749 23.1141C14.0201 22.993 14.0201 22.993 14.039 22.8518C14.0874 22.6609 14.1356 22.521 14.2851 22.3845C14.633 22.2122 15.0388 22.163 15.4196 22.0946C15.5769 22.0657 15.7335 22.0337 15.8902 22.0021C16.1899 21.9421 16.4901 21.8848 16.7906 21.8285C17.1214 21.7664 17.4517 21.7016 17.782 21.6364C18.204 21.5531 18.6261 21.4703 19.0486 21.3891C20.0797 21.191 21.1079 20.9812 22.1355 20.7664C22.1906 20.7549 22.2458 20.7434 22.3026 20.7315C22.4057 20.7099 22.5088 20.6883 22.6118 20.6667C22.6567 20.6572 22.7016 20.6478 22.7479 20.6381C22.7871 20.6299 22.8263 20.6216 22.8666 20.6131C22.9551 20.5957 22.9551 20.5957 23 20.5957Z" fill="white"/>
</g>
<defs>
<clipPath id="clip0_108_4311">
<rect width="23" height="25" fill="white" transform="translate(0 0.307617)"/>
</clipPath>
</defs>
</svg>
