<svg width="20" height="21" viewBox="0 0 20 21" fill="none" xmlns="http://www.w3.org/2000/svg">
<path d="M10.2347 0.583496C8.30334 0.583496 6.41533 1.1538 4.80945 2.22228C3.20356 3.29077 1.95193 4.80945 1.21282 6.58628C0.473714 8.3631 0.280329 10.3183 0.657123 12.2045C1.03392 14.0908 1.96397 15.8235 3.32966 17.1834C4.69535 18.5433 6.43535 19.4694 8.32962 19.8446C10.2239 20.2198 12.1874 20.0273 13.9717 19.2913C15.7561 18.5553 17.2812 17.3089 18.3542 15.7098C19.4272 14.1107 20 12.2307 20 10.3075C19.995 7.73004 18.9646 5.25958 17.1343 3.43705C15.304 1.61451 12.8231 0.588438 10.2347 0.583496ZM10.2347 18.5355C8.60047 18.5355 7.00293 18.0529 5.6441 17.1488C4.28528 16.2447 3.2262 14.9597 2.60081 13.4562C1.97541 11.9527 1.81177 10.2984 2.1306 8.70228C2.44942 7.10621 3.23639 5.64012 4.39198 4.48942C5.54756 3.33871 7.01987 2.55507 8.62271 2.23759C10.2256 1.92011 11.8869 2.08306 13.3968 2.70581C14.9066 3.32857 16.1971 4.38317 17.1051 5.73626C18.013 7.08934 18.4976 8.68014 18.4976 10.3075C18.4951 12.4889 17.6238 14.5803 16.0747 16.1228C14.5257 17.6653 12.4254 18.533 10.2347 18.5355ZM7.23003 10.3075C7.23003 10.9355 7.42846 11.5475 7.79719 12.0569C8.16593 12.5664 8.68629 12.9474 9.28456 13.1459C9.88282 13.3445 10.5287 13.3506 11.1306 13.1634C11.7326 12.9761 12.2601 12.6051 12.6385 12.1027C12.7595 11.946 12.9372 11.8427 13.1337 11.8148C13.3302 11.7868 13.5299 11.8364 13.6901 11.9531C13.8495 12.0721 13.9549 12.2493 13.983 12.4457C14.0112 12.6421 13.9599 12.8416 13.8403 13.0003C13.2728 13.7538 12.4815 14.3105 11.5786 14.5913C10.6757 14.8722 9.70688 14.863 8.80947 14.5652C7.91207 14.2673 7.13153 13.6958 6.57843 12.9317C6.02532 12.1675 5.72769 11.2494 5.72769 10.3075C5.72769 9.36553 6.02532 8.44746 6.57843 7.68331C7.13153 6.91916 7.91207 6.34767 8.80947 6.0498C9.70688 5.75193 10.6757 5.74277 11.5786 6.02363C12.4815 6.30449 13.2728 6.86113 13.8403 7.61469C13.9599 7.77339 14.0112 7.97288 13.983 8.16927C13.9549 8.36566 13.8495 8.54286 13.6901 8.66189C13.5299 8.77852 13.3302 8.82817 13.1337 8.80021C12.9372 8.77226 12.7595 8.66893 12.6385 8.51229C12.2601 8.00991 11.7326 7.63882 11.1306 7.45158C10.5287 7.26434 9.88282 7.27045 9.28456 7.46903C8.68629 7.66761 8.16593 8.0486 7.79719 8.55803C7.42846 9.06747 7.23003 9.67952 7.23003 10.3075Z" fill="white"/>
</svg>
